Coordinates
version=1
nRows=16
nColumns=22
inDegrees=yes

Units are S.I. units (second, meters, Newtons, ...)
If the header above contains a line with 'inDegrees', this indicates whether rotational values are in degrees (yes) or radians (no).

endheader
time	pelvis_tilt	pelvis_list	pelvis_rotation	pelvis_tx	pelvis_ty	pelvis_tz	hip_flexion_r	hip_adduction_r	hip_rotation_r	knee_angle_r	ankle_angle_r	subtalar_angle_r	hip_flexion_l	hip_adduction_l	hip_rotation_l	knee_angle_l	ankle_angle_l	subtalar_angle_l	lumbar_extension	lumbar_bending	lumbar_rotation
      0.01000000	     -9.31393035	      2.18989201	    -33.59824979	     -1.54366168	      0.88255890	     -0.53864767	     13.12181226	     -0.00833387	      3.37231971	    -12.23301943	     13.16807712	      1.26709231	     11.96883233	     -7.10112793	     -1.50140652	    -17.81825634	     18.09550030	      3.50655525	      1.50399657	      1.86982151	     12.76530005
      0.02000000	     -9.31177790	      2.18688657	    -33.58457393	     -1.54358964	      0.88253276	     -0.53860095	     13.11701052	     -0.00887389	      3.36412546	    -12.24725315	     13.18750810	      1.26600269	     11.97099585	     -7.10165574	     -1.49410294	    -17.83678679	     18.10784193	      3.50615815	      1.50179037	      1.85570170	     12.79030558
      0.03000000	     -9.31442335	      2.18429034	    -33.57331974	     -1.54347978	      0.88250060	     -0.53851565	     13.11007115	     -0.00561350	      3.36381925	    -12.25643470	     13.19145434	      1.26593873	     11.96670853	     -7.10662268	     -1.49350004	    -17.84418762	     18.11174616	      3.50546652	      1.51058767	      1.84476372	     12.79649198
      0.04000000	     -9.32265000	      2.17541786	    -33.55731275	     -1.54339145	      0.88243125	     -0.53845524	     13.12927482	      0.00459035	      3.32463051	    -12.31251656	     13.26852986	      1.26253007	     11.98881988	     -7.12097487	     -1.49767120	    -17.89556649	     18.18386218	      3.48918173	      1.51134320	      1.83996573	     12.83256777
      0.05000000	     -9.34717441	      2.17948489	    -33.54440022	     -1.54330402	      0.88234603	     -0.53836557	     13.16004577	      0.01594778	      3.30766158	    -12.34769332	     13.30639998	      1.25982418	     12.02402745	     -7.13529625	     -1.50080649	    -17.93252641	     18.22097278	      3.46584805	      1.53691832	      1.83006629	     12.86396935
      0.06000000	     -9.37515150	      2.18682287	    -33.53344095	     -1.54319935	      0.88225537	     -0.53827041	     13.19161903	      0.02632920	      3.30003307	    -12.37787222	     13.33942428	      1.25586300	     12.06057104	     -7.14764448	     -1.50871524	    -17.96601475	     18.25726776	      3.43817171	      1.56774459	      1.82092457	     12.90119309
      0.07000000	     -9.38940041	      2.18866716	    -33.52140227	     -1.54306421	      0.88219769	     -0.53816372	     13.19171040	      0.03167023	      3.29046087	    -12.38108934	     13.35443592	      1.25414662	     12.07127971	     -7.15478695	     -1.50479704	    -17.98370694	     18.27077784	      3.43012155	      1.58113385	      1.80670789	     12.94396945
      0.08000000	     -9.41294733	      2.19322683	    -33.51524390	     -1.54292573	      0.88211828	     -0.53803717	     13.20395009	      0.04198732	      3.28249181	    -12.39114204	     13.38562070	      1.25018634	     12.09136510	     -7.16740932	     -1.51008507	    -18.00577508	     18.30956350	      3.41431883	      1.60323765	      1.79521081	     12.99905680
      0.09000000	     -9.46264820	      2.20819486	    -33.52521184	     -1.54281675	      0.88198187	     -0.53789351	     13.26548861	      0.06545446	      3.30815691	    -12.43793567	     13.42622670	      1.23522910	     12.14894648	     -7.19156198	     -1.54966085	    -18.04958529	     18.37895050	      3.36636813	      1.65290249	      1.79223836	     13.04701018
      0.10000000	     -9.48216083	      2.21347718	    -33.52084341	     -1.54262817	      0.88191295	     -0.53775898	     13.26281980	      0.07073170	      3.29990052	    -12.43228783	     13.43871417	      1.23059847	     12.16014868	     -7.19702624	     -1.54171027	    -18.06899604	     18.39528324	      3.35742918	      1.66864267	      1.77868162	     13.10478002
      0.11000000	     -9.52259839	      2.22059524	    -33.53597775	     -1.54246806	      0.88179633	     -0.53759728	     13.29324592	      0.09432679	      3.33089045	    -12.45025172	     13.47081938	      1.21350685	     12.19587912	     -7.22083944	     -1.57400510	    -18.10462997	     18.47157708	      3.32701197	      1.69896648	      1.77692128	     13.17648375
      0.12000000	     -9.54134167	      2.22447860	    -33.53362298	     -1.54224551	      0.88172538	     -0.53746774	     13.28597329	      0.09906134	      3.32545565	    -12.44257117	     13.48340619	      1.20895391	     12.20846502	     -7.22522324	     -1.56525705	    -18.13161552	     18.48900615	      3.32197998	      1.70379298	      1.76593874	     13.24220234
      0.13000000	     -9.58002017	      2.22942614	    -33.56055736	     -1.54203875	      0.88160963	     -0.53728984	     13.30659883	      0.12385780	      3.36805602	    -12.45120320	     13.51654583	      1.19172035	     12.24391340	     -7.25085580	     -1.60385280	    -18.18241115	     18.57759058	      3.30149348	      1.72622559	      1.76882816	     13.32581648
      0.14000000	     -9.59863396	      2.23486071	    -33.56334651	     -1.54177528	      0.88153819	     -0.53715984	     13.29771555	      0.12598396	      3.36431054	    -12.44004732	     13.53058847	      1.18748607	     12.26064918	     -7.25263418	     -1.58927334	    -18.22031209	     18.59437070	      3.29834732	      1.72499743	      1.75823266	     13.39888732
      0.15000000	     -9.62081338	      2.24259565	    -33.57500235	     -1.54150029	      0.88145505	     -0.53702109	     13.29208679	      0.12950632	      3.37370770	    -12.42611000	     13.55706008	      1.18273581	     12.28553672	     -7.25622364	     -1.58113902	    -18.26975082	     18.63728237	      3.29310679	      1.72483279	      1.75009472	     13.48126555
      0.16000000	     -9.66589656	      2.25698986	    -33.61022936	     -1.54123872	      0.88132296	     -0.53683955	     13.32077408	      0.14944544	      3.43510523	    -12.42997405	     13.60147176	      1.17081579	     12.34179634	     -7.27805206	     -1.63051119	    -18.34459158	     18.73517601	      3.27315805	      1.74987907	      1.74980043	     13.56548865
